<?xml version="1.0" standalone="no"?>
<!DOCTYPE svg PUBLIC "-//W3C//DTD SVG 20010904//EN"
 "http://www.w3.org/TR/2001/REC-SVG-20010904/DTD/svg10.dtd">
<svg version="1.0" xmlns="http://www.w3.org/2000/svg"
 width="1024.000000pt" height="1024.000000pt" viewBox="0 0 1024.000000 1024.000000"
 preserveAspectRatio="xMidYMid meet">
<metadata>
Created by potrace 1.11, written by Peter Selinger 2001-2013
</metadata>
<g transform="translate(0.000000,1024.000000) scale(0.100000,-0.100000)"
fill="#000000" stroke="none">
<path d="M7703 8917 c-7 -15 -6 -104 3 -292 7 -149 13 -298 14 -332 l0 -62
-66 49 c-36 28 -78 56 -93 64 -108 56 -284 83 -429 66 -186 -23 -328 -90 -463
-218 -186 -176 -259 -343 -259 -592 0 -147 24 -251 87 -374 39 -76 64 -109
152 -197 97 -97 115 -111 211 -157 128 -62 222 -84 360 -84 174 -1 297 44 412
151 l58 53 0 -70 c0 -39 5 -83 12 -97 l11 -25 144 0 143 0 11 27 c7 18 6 99
-3 257 -17 319 -17 1407 0 1638 10 130 10 182 2 197 -10 20 -20 21 -154 21
-139 0 -143 -1 -153 -23z m-385 -642 c188 -44 313 -168 377 -375 l26 -85 -8
-310 -8 -310 -29 -60 c-37 -75 -123 -161 -198 -197 -336 -164 -658 110 -734
624 -19 129 -14 276 12 373 45 168 162 305 294 346 43 13 202 9 268 -6z"/>
<path d="M1768 8675 c-8 -19 -8 -82 1 -256 17 -305 15 -870 -4 -1248 -12 -226
-13 -313 -5 -338 l12 -33 526 -1 c290 -1 586 -4 657 -8 103 -6 132 -4 141 6
15 18 80 216 89 270 6 35 4 42 -13 47 -15 5 -34 -8 -78 -52 -48 -47 -72 -63
-124 -80 -132 -43 -179 -47 -523 -45 -181 1 -331 3 -333 5 -9 9 -24 534 -25
858 0 225 5 429 16 588 13 188 14 250 5 277 l-12 35 -159 0 -159 0 -12 -25z"/>
<path d="M8563 8426 c-190 -36 -339 -170 -374 -334 -23 -112 22 -260 108 -353
72 -77 170 -125 353 -174 257 -69 312 -85 364 -110 120 -57 191 -158 191 -270
-1 -76 -26 -126 -95 -188 -158 -142 -359 -151 -600 -26 -86 44 -152 107 -234
222 -55 78 -56 79 -66 52 -14 -37 -34 -276 -23 -284 4 -4 42 -20 83 -35 41
-16 115 -46 165 -68 277 -123 570 -115 777 21 92 60 152 125 190 206 84 180
48 379 -93 509 -82 76 -184 122 -419 191 -364 105 -473 182 -457 322 9 82 101
176 200 205 56 16 229 15 297 -1 86 -21 193 -76 255 -133 31 -28 86 -91 123
-141 l67 -89 7 33 c10 44 15 345 6 354 -4 4 -105 28 -225 52 -189 39 -238 45
-373 49 -105 2 -178 -1 -227 -10z"/>
<path d="M3780 8400 c-244 -66 -444 -241 -535 -467 -74 -183 -74 -463 0 -646
40 -101 87 -169 181 -264 80 -80 103 -97 195 -141 150 -73 213 -86 394 -86
144 0 154 1 247 33 54 18 133 53 175 77 105 60 223 152 235 183 12 31 16 151
6 167 -5 7 -40 -21 -95 -75 -136 -134 -271 -195 -457 -208 -144 -9 -284 34
-379 117 -59 52 -204 280 -186 293 5 4 803 373 986 455 120 55 122 56 128 93
6 35 1 46 -64 141 -38 57 -86 122 -106 145 -53 63 -173 138 -268 169 -71 24
-102 28 -232 31 -126 2 -162 0 -225 -17z m255 -114 c118 -31 199 -100 264
-225 37 -71 80 -196 70 -205 -10 -9 -834 -366 -845 -366 -23 0 -31 176 -14
320 34 278 122 425 285 476 53 17 178 17 240 0z"/>
<path d="M5394 8405 c-283 -62 -507 -281 -585 -570 -31 -114 -31 -335 0 -450
75 -281 284 -490 567 -567 63 -17 109 -21 229 -22 177 -1 239 14 395 95 99 52
255 163 265 189 11 26 18 137 11 164 -6 26 -8 24 -89 -56 -134 -134 -276 -201
-450 -214 -176 -14 -320 37 -424 150 -50 55 -146 205 -155 244 -2 9 189 102
552 271 l555 257 5 34 c5 31 -3 48 -74 154 -43 65 -95 134 -115 153 -81 79
-203 144 -317 168 -86 18 -287 18 -370 0z m241 -120 c73 -19 150 -69 198 -127
42 -51 103 -174 122 -248 l13 -51 -41 -20 c-23 -11 -215 -95 -427 -188 -365
-160 -385 -168 -392 -147 -3 11 -6 80 -7 152 -3 345 100 572 283 630 57 18
180 17 251 -1z"/>
<path d="M7585 5594 c-122 -18 -260 -50 -347 -80 -452 -157 -755 -504 -833
-954 -18 -107 -21 -347 -4 -465 42 -301 167 -548 384 -753 199 -190 397 -305
900 -522 551 -238 697 -335 767 -510 19 -45 23 -75 23 -165 0 -105 -2 -114
-34 -179 -62 -127 -183 -218 -356 -268 -71 -20 -101 -23 -260 -23 -197 1 -249
9 -396 66 -172 67 -353 221 -487 417 l-64 93 -31 -20 c-18 -10 -189 -110 -382
-221 -192 -111 -354 -206 -359 -211 -18 -17 127 -240 242 -373 194 -223 478
-407 781 -506 429 -141 976 -144 1392 -10 134 43 340 148 440 224 353 268 522
679 479 1167 -50 561 -325 904 -985 1229 -110 54 -297 140 -415 190 -488 208
-627 307 -681 483 -30 96 -24 238 13 317 38 82 98 144 178 184 94 47 163 59
290 53 229 -11 375 -101 519 -319 l58 -86 368 236 c203 130 370 242 372 248 2
6 -27 56 -64 112 -208 308 -451 495 -766 586 -163 47 -248 58 -487 61 -124 2
-238 1 -255 -1z"/>
<path d="M4617 5543 c-4 -3 -7 -772 -7 -1708 0 -1145 -3 -1721 -11 -1761 -37
-212 -135 -335 -301 -378 -221 -57 -425 -13 -571 124 -63 58 -159 190 -217
297 -13 24 -28 43 -33 43 -7 0 -762 -453 -775 -465 -2 -2 12 -34 32 -72 136
-272 393 -525 661 -653 307 -147 696 -193 1085 -129 300 50 537 164 721 348
183 182 292 407 350 721 l24 125 3 1758 3 1757 -479 0 c-263 0 -482 -3 -485
-7z"/>
</g>
</svg>
