<?xml version="1.0" encoding="UTF-8"?>
<!-- Generator: Adobe Illustrator 22.1.0, SVG Export Plug-In . SVG Version: 6.00 Build 0)  -->
<svg version="1.1" id="Layer_1" xmlns="http://www.w3.org/2000/svg" xmlns:xlink="http://www.w3.org/1999/xlink" x="0px" y="0px" width="157.7px" height="177.2px" viewBox="0 0 157.7 177.2" style="enable-background:new 0 0 157.7 177.2;" xml:space="preserve">
<style type="text/css">
	.st0{fill:#FEF502;}
	.st1{fill:#2E2E2C;}
	.st2{fill:#E6CB00;}
</style>
<polygon id="Path" class="st0" points="157.7,0 0,0 0,157.4 102.1,157.4 124.2,177.2 124.2,157.4 157.7,157.4 "/>
<path id="Path_1_" class="st1" d="M59.2,115.1c-2.3,0-4.4-1.5-5.2-3.7l-5.3,1.3c1.4,4.6,5.7,7.7,10.5,7.7s9.1-3.1,10.5-7.7l-5.3-1.3  C63.6,113.7,61.5,115.1,59.2,115.1L59.2,115.1z"/>
<path id="Shape" class="st1" d="M98.3,126.4l9-4.2c0.7,2.8,2.3,5.3,4.7,7.1c2.6,1.7,5.6,2.6,8.8,2.4c2.9,0.2,5.8-0.9,8-2.8  c2-1.9,3.1-4.7,3-7.5c0-4.1-3.4-7.7-10.2-10.9c-0.9-0.5-1.7-0.8-2.2-1c-7.7-3.7-12.8-7.1-15.3-10.2c-2.6-3.1-3.9-7-3.8-11.1  c-0.2-5.2,1.9-10.2,5.8-13.8c3.9-3.5,8.9-5.3,15.2-5.3c4.5-0.1,8.9,0.9,12.9,3c3.4,1.9,5.9,4.9,7.2,8.5l-8.8,4.5  c-1.1-1.9-2.7-3.6-4.6-4.8c-4.1-2.3-9.2-2-13,0.8c-1.8,1.6-2.8,3.9-2.7,6.4c0,4.2,3.9,8.1,11.8,11.7c0.6,0.3,1.1,0.5,1.4,0.7  c6.9,3.2,11.6,6.3,14.2,9.3c2.6,3.2,4,7.2,3.8,11.3c0,6.6-2.1,11.8-6.2,15.7s-9.8,5.8-16.8,5.8c-5.9,0-10.8-1.3-14.6-4.1  C101.8,135.3,99.2,131.2,98.3,126.4L98.3,126.4z M58.9,141.6c16.5,0,30-13.4,30-29.9V71.2c-3.8-0.3-7.7-0.6-11.5-0.8v13.1v28.2  c0,6.4-3.3,12.3-8.7,15.7c-5.4,3.4-12.2,3.7-17.9,0.9l-7.7,8.8C47.9,140.1,53.4,141.6,58.9,141.6L58.9,141.6z"/>
<path id="Path_2_" class="st2" d="M29,71.2v11.7h11.5v-1.1V70.4C36.6,70.7,32.8,70.9,29,71.2z"/>
<path id="Path_3_" class="st2" d="M44.7,70.2v11.4c4.1-0.2,8.2-0.3,12.1-0.3V69.8C52.7,69.9,48.7,70,44.7,70.2z"/>
<path id="Path_4_" class="st2" d="M61,69.8v11.4c4,0,8.1,0.1,12.2,0.3V70.2C69.1,70,65.1,69.9,61,69.8z"/>
<rect id="Rectangle" x="29" y="87.1" class="st2" width="11.5" height="12.1"/>
<path id="Path_5_" class="st2" d="M40.4,111.7v-8.2H29v8.2c0,1.9,0.2,3.7,0.5,5.6l11.2-2.7C40.5,113.6,40.4,112.7,40.4,111.7z"/>
<path id="Path_6_" class="st2" d="M47.2,126c-2.4-2-4.3-4.5-5.4-7.3l-11.2,2.8c1.8,5.1,4.9,9.7,9.1,13.2L47.2,126z"/>
<path id="Path_10_" class="st1" d="M51.8,93c-2.6,0-4.7,2.1-4.7,4.7c0,2.6,2.1,4.7,4.7,4.7c2.6,0,4.7-2.1,4.7-4.7  C56.5,95.1,54.4,93,51.8,93z"/>
<path id="Path_11_" class="st1" d="M66,93c-2.6,0-4.7,2.1-4.7,4.7c0,2.6,2.1,4.7,4.7,4.7c2.6,0,4.7-2.1,4.7-4.7  C70.7,95.1,68.6,93,66,93z"/>
</svg>